<mxfile host="app.diagrams.net" modified="2024-05-07T12:11:23.984Z" agent="Mozilla/5.0 (Windows NT 10.0; Win64; x64; rv:125.0) Gecko/20100101 Firefox/125.0" etag="Wd4-7B2cIRM4B_kh64ZH" version="24.3.1" type="device">
  <diagram name="Page-1" id="AUV8XOVMXynb2XTjr2WS">
    <mxGraphModel dx="1290" dy="1658" grid="1" gridSize="10" guides="1" tooltips="1" connect="1" arrows="1" fold="1" page="1" pageScale="1" pageWidth="850" pageHeight="1100" math="0" shadow="0">
      <root>
        <mxCell id="0" />
        <mxCell id="1" parent="0" />
        <mxCell id="WBVQhS7fT6MhLSs4P5gq-1" value="MainController" style="swimlane;fontStyle=1;align=center;verticalAlign=top;childLayout=stackLayout;horizontal=1;startSize=26;horizontalStack=0;resizeParent=1;resizeParentMax=0;resizeLast=0;collapsible=1;marginBottom=0;whiteSpace=wrap;html=1;" parent="1" vertex="1">
          <mxGeometry x="360" width="310" height="300" as="geometry" />
        </mxCell>
        <mxCell id="WBVQhS7fT6MhLSs4P5gq-2" value="&lt;div&gt;&lt;div&gt;&lt;div&gt;- m_connectionManager: ConnectionManager&lt;/div&gt;&lt;/div&gt;&lt;div&gt;- m_connectionManager: ConnectionManager&lt;/div&gt;&lt;div&gt;- m_connectionManagerThread: std::thread&lt;/div&gt;&lt;div&gt;&lt;div&gt;- m_isUAVconnected: bool&lt;/div&gt;&lt;div&gt;- m_isHL2conneccted: bool&lt;/div&gt;&lt;/div&gt;&lt;/div&gt;&lt;div&gt;+ flightConfig: std::shared_ptr&amp;lt;FlightConfig&amp;gt;&lt;/div&gt;&lt;div&gt;...&lt;br&gt;&lt;/div&gt;&lt;div&gt;&lt;br&gt;&lt;/div&gt;" style="text;strokeColor=none;fillColor=none;align=left;verticalAlign=top;spacingLeft=4;spacingRight=4;overflow=hidden;rotatable=0;points=[[0,0.5],[1,0.5]];portConstraint=eastwest;whiteSpace=wrap;html=1;" parent="WBVQhS7fT6MhLSs4P5gq-1" vertex="1">
          <mxGeometry y="26" width="310" height="154" as="geometry" />
        </mxCell>
        <mxCell id="WBVQhS7fT6MhLSs4P5gq-3" value="" style="line;strokeWidth=1;fillColor=none;align=left;verticalAlign=middle;spacingTop=-1;spacingLeft=3;spacingRight=3;rotatable=0;labelPosition=right;points=[];portConstraint=eastwest;strokeColor=inherit;" parent="WBVQhS7fT6MhLSs4P5gq-1" vertex="1">
          <mxGeometry y="180" width="310" height="8" as="geometry" />
        </mxCell>
        <mxCell id="WBVQhS7fT6MhLSs4P5gq-4" value="&lt;div&gt;- initialize(): bool&lt;/div&gt;&lt;div&gt;- addObserver(?): void&lt;/div&gt;&lt;div&gt;- removeObserver(?): void&lt;/div&gt;&lt;div&gt;- notifyObserver(?): void&lt;br&gt;&lt;/div&gt;&lt;div&gt;+ run(): void&lt;/div&gt;&lt;div&gt;+ shutdown(): bool&lt;br&gt;&lt;/div&gt;&lt;div&gt;&lt;br&gt;&lt;/div&gt;" style="text;strokeColor=none;fillColor=none;align=left;verticalAlign=top;spacingLeft=4;spacingRight=4;overflow=hidden;rotatable=0;points=[[0,0.5],[1,0.5]];portConstraint=eastwest;whiteSpace=wrap;html=1;" parent="WBVQhS7fT6MhLSs4P5gq-1" vertex="1">
          <mxGeometry y="188" width="310" height="112" as="geometry" />
        </mxCell>
        <mxCell id="WBVQhS7fT6MhLSs4P5gq-5" value="ConfigurationManager" style="swimlane;fontStyle=1;align=center;verticalAlign=top;childLayout=stackLayout;horizontal=1;startSize=26;horizontalStack=0;resizeParent=1;resizeParentMax=0;resizeLast=0;collapsible=1;marginBottom=0;whiteSpace=wrap;html=1;" parent="1" vertex="1">
          <mxGeometry x="50" y="120" width="250" height="76" as="geometry" />
        </mxCell>
        <mxCell id="WBVQhS7fT6MhLSs4P5gq-8" value="&lt;div&gt;+ loadConfig(const string&amp;amp; path, std::shared_ptr&amp;lt;FlightConfig&amp;gt; flightConfig): void, static&lt;/div&gt;" style="text;strokeColor=none;fillColor=none;align=left;verticalAlign=top;spacingLeft=4;spacingRight=4;overflow=hidden;rotatable=0;points=[[0,0.5],[1,0.5]];portConstraint=eastwest;whiteSpace=wrap;html=1;" parent="WBVQhS7fT6MhLSs4P5gq-5" vertex="1">
          <mxGeometry y="26" width="250" height="50" as="geometry" />
        </mxCell>
        <mxCell id="WBVQhS7fT6MhLSs4P5gq-9" value="ConnectionManager" style="swimlane;fontStyle=1;align=center;verticalAlign=top;childLayout=stackLayout;horizontal=1;startSize=26;horizontalStack=0;resizeParent=1;resizeParentMax=0;resizeLast=0;collapsible=1;marginBottom=0;whiteSpace=wrap;html=1;" parent="1" vertex="1">
          <mxGeometry x="550" y="320" width="290" height="240" as="geometry" />
        </mxCell>
        <mxCell id="WBVQhS7fT6MhLSs4P5gq-10" value="&lt;div&gt;&lt;div&gt;- m_telemetryReceiverClient: TelemetryReceiver&lt;/div&gt;&lt;div&gt;- m_telemetrySenderServer: TelemetrySenderServer&lt;br&gt;&lt;/div&gt;&lt;/div&gt;&lt;div&gt;- m_telemeterReceiverClientThread: std::thread&lt;br&gt;&lt;/div&gt;&lt;div&gt;- m_telemeterySenderServerThread: std::thread&lt;/div&gt;&lt;div&gt;...&lt;br&gt;&lt;/div&gt;&lt;div&gt;&lt;br&gt;&lt;/div&gt;" style="text;strokeColor=none;fillColor=none;align=left;verticalAlign=top;spacingLeft=4;spacingRight=4;overflow=hidden;rotatable=0;points=[[0,0.5],[1,0.5]];portConstraint=eastwest;whiteSpace=wrap;html=1;" parent="WBVQhS7fT6MhLSs4P5gq-9" vertex="1">
          <mxGeometry y="26" width="290" height="94" as="geometry" />
        </mxCell>
        <mxCell id="WBVQhS7fT6MhLSs4P5gq-11" value="" style="line;strokeWidth=1;fillColor=none;align=left;verticalAlign=middle;spacingTop=-1;spacingLeft=3;spacingRight=3;rotatable=0;labelPosition=right;points=[];portConstraint=eastwest;strokeColor=inherit;" parent="WBVQhS7fT6MhLSs4P5gq-9" vertex="1">
          <mxGeometry y="120" width="290" height="8" as="geometry" />
        </mxCell>
        <mxCell id="WBVQhS7fT6MhLSs4P5gq-12" value="&lt;div&gt;- addObserver(?): void&lt;/div&gt;&lt;div&gt;- removeObserver(?): void&lt;/div&gt;&lt;div&gt;- notifyObserver(?): void&lt;br&gt;&lt;/div&gt;&lt;div&gt;+ run(): void&lt;/div&gt;&lt;div&gt;+ shutdown(): bool&lt;br&gt;&lt;/div&gt;&lt;div&gt;+ receive(): void&lt;br&gt;&lt;/div&gt;" style="text;strokeColor=none;fillColor=none;align=left;verticalAlign=top;spacingLeft=4;spacingRight=4;overflow=hidden;rotatable=0;points=[[0,0.5],[1,0.5]];portConstraint=eastwest;whiteSpace=wrap;html=1;" parent="WBVQhS7fT6MhLSs4P5gq-9" vertex="1">
          <mxGeometry y="128" width="290" height="112" as="geometry" />
        </mxCell>
        <mxCell id="WBVQhS7fT6MhLSs4P5gq-13" value="TelemetrySenderServer" style="swimlane;fontStyle=1;align=center;verticalAlign=top;childLayout=stackLayout;horizontal=1;startSize=26;horizontalStack=0;resizeParent=1;resizeParentMax=0;resizeLast=0;collapsible=1;marginBottom=0;whiteSpace=wrap;html=1;" parent="1" vertex="1">
          <mxGeometry x="680" y="570" width="160" height="120" as="geometry" />
        </mxCell>
        <mxCell id="WBVQhS7fT6MhLSs4P5gq-14" value="+ field: type" style="text;strokeColor=none;fillColor=none;align=left;verticalAlign=top;spacingLeft=4;spacingRight=4;overflow=hidden;rotatable=0;points=[[0,0.5],[1,0.5]];portConstraint=eastwest;whiteSpace=wrap;html=1;" parent="WBVQhS7fT6MhLSs4P5gq-13" vertex="1">
          <mxGeometry y="26" width="160" height="26" as="geometry" />
        </mxCell>
        <mxCell id="WBVQhS7fT6MhLSs4P5gq-15" value="" style="line;strokeWidth=1;fillColor=none;align=left;verticalAlign=middle;spacingTop=-1;spacingLeft=3;spacingRight=3;rotatable=0;labelPosition=right;points=[];portConstraint=eastwest;strokeColor=inherit;" parent="WBVQhS7fT6MhLSs4P5gq-13" vertex="1">
          <mxGeometry y="52" width="160" height="8" as="geometry" />
        </mxCell>
        <mxCell id="WBVQhS7fT6MhLSs4P5gq-16" value="&lt;div&gt;- sendPosition(): void&lt;br&gt;&lt;/div&gt;&lt;div&gt;+ receive(): void&lt;/div&gt;" style="text;strokeColor=none;fillColor=none;align=left;verticalAlign=top;spacingLeft=4;spacingRight=4;overflow=hidden;rotatable=0;points=[[0,0.5],[1,0.5]];portConstraint=eastwest;whiteSpace=wrap;html=1;" parent="WBVQhS7fT6MhLSs4P5gq-13" vertex="1">
          <mxGeometry y="60" width="160" height="60" as="geometry" />
        </mxCell>
        <mxCell id="WBVQhS7fT6MhLSs4P5gq-17" value="TelemetryReceiverClient" style="swimlane;fontStyle=1;align=center;verticalAlign=top;childLayout=stackLayout;horizontal=1;startSize=26;horizontalStack=0;resizeParent=1;resizeParentMax=0;resizeLast=0;collapsible=1;marginBottom=0;whiteSpace=wrap;html=1;" parent="1" vertex="1">
          <mxGeometry x="240" y="500" width="280" height="198" as="geometry" />
        </mxCell>
        <mxCell id="WBVQhS7fT6MhLSs4P5gq-18" value="&lt;div&gt;- m_telemetryProcessor: TelemetryProcessor&lt;/div&gt;&lt;div&gt;- m_telemetryProcessorThread: std::thread&lt;/div&gt;&lt;div&gt;...&lt;br&gt;&lt;/div&gt;" style="text;strokeColor=none;fillColor=none;align=left;verticalAlign=top;spacingLeft=4;spacingRight=4;overflow=hidden;rotatable=0;points=[[0,0.5],[1,0.5]];portConstraint=eastwest;whiteSpace=wrap;html=1;" parent="WBVQhS7fT6MhLSs4P5gq-17" vertex="1">
          <mxGeometry y="26" width="280" height="54" as="geometry" />
        </mxCell>
        <mxCell id="WBVQhS7fT6MhLSs4P5gq-19" value="" style="line;strokeWidth=1;fillColor=none;align=left;verticalAlign=middle;spacingTop=-1;spacingLeft=3;spacingRight=3;rotatable=0;labelPosition=right;points=[];portConstraint=eastwest;strokeColor=inherit;" parent="WBVQhS7fT6MhLSs4P5gq-17" vertex="1">
          <mxGeometry y="80" width="280" height="8" as="geometry" />
        </mxCell>
        <mxCell id="WBVQhS7fT6MhLSs4P5gq-20" value="&lt;div&gt;- addObserver(?): void&lt;/div&gt;&lt;div&gt;- removeObserver(?): void&lt;/div&gt;&lt;div&gt;- notifyObserver(?): void&lt;br&gt;&lt;/div&gt;&lt;div&gt;+ run(): void&lt;/div&gt;&lt;div&gt;+ shutdown(): bool&lt;br&gt;&lt;/div&gt;&lt;div&gt;+ receive(): void&lt;/div&gt;&lt;div&gt;&lt;br&gt;&lt;/div&gt;&lt;div&gt;&lt;br&gt;&lt;/div&gt;" style="text;strokeColor=none;fillColor=none;align=left;verticalAlign=top;spacingLeft=4;spacingRight=4;overflow=hidden;rotatable=0;points=[[0,0.5],[1,0.5]];portConstraint=eastwest;whiteSpace=wrap;html=1;" parent="WBVQhS7fT6MhLSs4P5gq-17" vertex="1">
          <mxGeometry y="88" width="280" height="110" as="geometry" />
        </mxCell>
        <mxCell id="WBVQhS7fT6MhLSs4P5gq-25" value="&lt;b&gt;FlightConfig&lt;/b&gt;" style="html=1;whiteSpace=wrap;" parent="1" vertex="1">
          <mxGeometry x="120" y="20" width="110" height="50" as="geometry" />
        </mxCell>
        <mxCell id="WBVQhS7fT6MhLSs4P5gq-26" value="TelemetryProcessor" style="swimlane;fontStyle=1;align=center;verticalAlign=top;childLayout=stackLayout;horizontal=1;startSize=26;horizontalStack=0;resizeParent=1;resizeParentMax=0;resizeLast=0;collapsible=1;marginBottom=0;whiteSpace=wrap;html=1;" parent="1" vertex="1">
          <mxGeometry x="310" y="730" width="160" height="130" as="geometry" />
        </mxCell>
        <mxCell id="WBVQhS7fT6MhLSs4P5gq-27" value="+ field: type" style="text;strokeColor=none;fillColor=none;align=left;verticalAlign=top;spacingLeft=4;spacingRight=4;overflow=hidden;rotatable=0;points=[[0,0.5],[1,0.5]];portConstraint=eastwest;whiteSpace=wrap;html=1;" parent="WBVQhS7fT6MhLSs4P5gq-26" vertex="1">
          <mxGeometry y="26" width="160" height="26" as="geometry" />
        </mxCell>
        <mxCell id="WBVQhS7fT6MhLSs4P5gq-28" value="" style="line;strokeWidth=1;fillColor=none;align=left;verticalAlign=middle;spacingTop=-1;spacingLeft=3;spacingRight=3;rotatable=0;labelPosition=right;points=[];portConstraint=eastwest;strokeColor=inherit;" parent="WBVQhS7fT6MhLSs4P5gq-26" vertex="1">
          <mxGeometry y="52" width="160" height="8" as="geometry" />
        </mxCell>
        <mxCell id="WBVQhS7fT6MhLSs4P5gq-29" value="&lt;div&gt;- process(): void&lt;/div&gt;&lt;div&gt;- generateReport(): void&lt;br&gt;&lt;/div&gt;&lt;div&gt;+ receive(): void&lt;/div&gt;" style="text;strokeColor=none;fillColor=none;align=left;verticalAlign=top;spacingLeft=4;spacingRight=4;overflow=hidden;rotatable=0;points=[[0,0.5],[1,0.5]];portConstraint=eastwest;whiteSpace=wrap;html=1;" parent="WBVQhS7fT6MhLSs4P5gq-26" vertex="1">
          <mxGeometry y="60" width="160" height="70" as="geometry" />
        </mxCell>
        <mxCell id="nWSMORwomO7x_Qd4vwny-9" value="&lt;span style=&quot;font-weight: normal;&quot;&gt;&amp;lt;&amp;lt;interface&amp;gt;&amp;gt;&lt;/span&gt;&lt;br&gt;&lt;div&gt;IObservable&lt;br&gt;&lt;/div&gt;" style="swimlane;fontStyle=1;align=center;verticalAlign=top;childLayout=stackLayout;horizontal=1;startSize=40;horizontalStack=0;resizeParent=1;resizeParentMax=0;resizeLast=0;collapsible=1;marginBottom=0;whiteSpace=wrap;html=1;" parent="1" vertex="1">
          <mxGeometry x="440" y="-247" width="160" height="170" as="geometry" />
        </mxCell>
        <mxCell id="nWSMORwomO7x_Qd4vwny-10" value="+ field: type" style="text;strokeColor=none;fillColor=none;align=left;verticalAlign=top;spacingLeft=4;spacingRight=4;overflow=hidden;rotatable=0;points=[[0,0.5],[1,0.5]];portConstraint=eastwest;whiteSpace=wrap;html=1;" parent="nWSMORwomO7x_Qd4vwny-9" vertex="1">
          <mxGeometry y="40" width="160" height="26" as="geometry" />
        </mxCell>
        <mxCell id="nWSMORwomO7x_Qd4vwny-11" value="" style="line;strokeWidth=1;fillColor=none;align=left;verticalAlign=middle;spacingTop=-1;spacingLeft=3;spacingRight=3;rotatable=0;labelPosition=right;points=[];portConstraint=eastwest;strokeColor=inherit;" parent="nWSMORwomO7x_Qd4vwny-9" vertex="1">
          <mxGeometry y="66" width="160" height="8" as="geometry" />
        </mxCell>
        <mxCell id="nWSMORwomO7x_Qd4vwny-12" value="&lt;div&gt;- ~IObservable(): default&lt;/div&gt;&lt;div&gt;- addObserver(?): void&lt;/div&gt;&lt;div&gt;- removeObserver(?): void&lt;/div&gt;&lt;div&gt;- notifyObserver(?): void&lt;br&gt;&lt;/div&gt;&lt;div&gt;+ run(): void&lt;/div&gt;&lt;div&gt;+ shutdown(): bool&lt;br&gt;&lt;/div&gt;" style="text;strokeColor=none;fillColor=none;align=left;verticalAlign=top;spacingLeft=4;spacingRight=4;overflow=hidden;rotatable=0;points=[[0,0.5],[1,0.5]];portConstraint=eastwest;whiteSpace=wrap;html=1;" parent="nWSMORwomO7x_Qd4vwny-9" vertex="1">
          <mxGeometry y="74" width="160" height="96" as="geometry" />
        </mxCell>
        <mxCell id="nWSMORwomO7x_Qd4vwny-13" value="&lt;span style=&quot;font-weight: normal;&quot;&gt;&amp;lt;&amp;lt;interface&amp;gt;&amp;gt;&lt;/span&gt;&lt;br&gt;&lt;div&gt;IObserver&lt;br&gt;&lt;/div&gt;" style="swimlane;fontStyle=1;align=center;verticalAlign=top;childLayout=stackLayout;horizontal=1;startSize=40;horizontalStack=0;resizeParent=1;resizeParentMax=0;resizeLast=0;collapsible=1;marginBottom=0;whiteSpace=wrap;html=1;" parent="1" vertex="1">
          <mxGeometry x="680" y="-247" width="160" height="76" as="geometry" />
        </mxCell>
        <mxCell id="nWSMORwomO7x_Qd4vwny-16" value="+ receive(): void" style="text;strokeColor=none;fillColor=none;align=left;verticalAlign=top;spacingLeft=4;spacingRight=4;overflow=hidden;rotatable=0;points=[[0,0.5],[1,0.5]];portConstraint=eastwest;whiteSpace=wrap;html=1;" parent="nWSMORwomO7x_Qd4vwny-13" vertex="1">
          <mxGeometry y="40" width="160" height="36" as="geometry" />
        </mxCell>
        <mxCell id="SEF9WH8XTWqk2aDTDYm8-1" value="" style="endArrow=block;dashed=1;endFill=0;endSize=12;html=1;rounded=0;entryX=0.469;entryY=1.042;entryDx=0;entryDy=0;entryPerimeter=0;exitX=0.5;exitY=0;exitDx=0;exitDy=0;" edge="1" parent="1" source="WBVQhS7fT6MhLSs4P5gq-1" target="nWSMORwomO7x_Qd4vwny-12">
          <mxGeometry width="160" relative="1" as="geometry">
            <mxPoint x="490" y="40" as="sourcePoint" />
            <mxPoint x="650" y="40" as="targetPoint" />
          </mxGeometry>
        </mxCell>
        <mxCell id="SEF9WH8XTWqk2aDTDYm8-2" value="" style="endArrow=block;dashed=1;endFill=0;endSize=12;html=1;rounded=0;exitX=1;exitY=0;exitDx=0;exitDy=0;entryX=1;entryY=1;entryDx=0;entryDy=0;" edge="1" parent="1" source="WBVQhS7fT6MhLSs4P5gq-9" target="nWSMORwomO7x_Qd4vwny-13">
          <mxGeometry width="160" relative="1" as="geometry">
            <mxPoint x="490" y="210" as="sourcePoint" />
            <mxPoint x="650" y="210" as="targetPoint" />
          </mxGeometry>
        </mxCell>
        <mxCell id="SEF9WH8XTWqk2aDTDYm8-3" value="" style="endArrow=block;dashed=1;endFill=0;endSize=12;html=1;rounded=0;exitX=0.75;exitY=0;exitDx=0;exitDy=0;entryX=1.013;entryY=1.021;entryDx=0;entryDy=0;entryPerimeter=0;" edge="1" parent="1" source="WBVQhS7fT6MhLSs4P5gq-9" target="nWSMORwomO7x_Qd4vwny-12">
          <mxGeometry width="160" relative="1" as="geometry">
            <mxPoint x="490" y="160" as="sourcePoint" />
            <mxPoint x="650" y="160" as="targetPoint" />
            <Array as="points">
              <mxPoint x="768" y="-75" />
            </Array>
          </mxGeometry>
        </mxCell>
        <mxCell id="SEF9WH8XTWqk2aDTDYm8-4" value="" style="endArrow=block;dashed=1;endFill=0;endSize=12;html=1;rounded=0;exitX=1;exitY=0;exitDx=0;exitDy=0;entryX=0;entryY=0.5;entryDx=0;entryDy=0;" edge="1" parent="1" source="WBVQhS7fT6MhLSs4P5gq-17" target="nWSMORwomO7x_Qd4vwny-12">
          <mxGeometry width="160" relative="1" as="geometry">
            <mxPoint x="490" y="620" as="sourcePoint" />
            <mxPoint x="650" y="620" as="targetPoint" />
            <Array as="points">
              <mxPoint x="520" y="400" />
              <mxPoint x="340" y="400" />
              <mxPoint x="340" y="-125" />
            </Array>
          </mxGeometry>
        </mxCell>
        <mxCell id="SEF9WH8XTWqk2aDTDYm8-5" value="" style="endArrow=block;dashed=1;endFill=0;endSize=12;html=1;rounded=0;exitX=1;exitY=0;exitDx=0;exitDy=0;entryX=0.513;entryY=1.083;entryDx=0;entryDy=0;entryPerimeter=0;" edge="1" parent="1" source="WBVQhS7fT6MhLSs4P5gq-17" target="nWSMORwomO7x_Qd4vwny-16">
          <mxGeometry width="160" relative="1" as="geometry">
            <mxPoint x="490" y="280" as="sourcePoint" />
            <mxPoint x="650" y="280" as="targetPoint" />
            <Array as="points">
              <mxPoint x="520" y="310" />
              <mxPoint x="763" y="310" />
            </Array>
          </mxGeometry>
        </mxCell>
        <mxCell id="SEF9WH8XTWqk2aDTDYm8-6" value="" style="endArrow=block;dashed=1;endFill=0;endSize=12;html=1;rounded=0;exitX=1;exitY=0.5;exitDx=0;exitDy=0;entryX=1;entryY=0.5;entryDx=0;entryDy=0;" edge="1" parent="1" source="WBVQhS7fT6MhLSs4P5gq-16" target="nWSMORwomO7x_Qd4vwny-16">
          <mxGeometry width="160" relative="1" as="geometry">
            <mxPoint x="490" y="420" as="sourcePoint" />
            <mxPoint x="650" y="420" as="targetPoint" />
            <Array as="points">
              <mxPoint x="890" y="660" />
              <mxPoint x="890" y="-189" />
            </Array>
          </mxGeometry>
        </mxCell>
        <mxCell id="SEF9WH8XTWqk2aDTDYm8-7" value="" style="endArrow=block;dashed=1;endFill=0;endSize=12;html=1;rounded=0;exitX=1;exitY=0.5;exitDx=0;exitDy=0;entryX=1;entryY=0.25;entryDx=0;entryDy=0;" edge="1" parent="1" source="WBVQhS7fT6MhLSs4P5gq-29" target="nWSMORwomO7x_Qd4vwny-13">
          <mxGeometry width="160" relative="1" as="geometry">
            <mxPoint x="490" y="690" as="sourcePoint" />
            <mxPoint x="650" y="690" as="targetPoint" />
            <Array as="points">
              <mxPoint x="920" y="820" />
              <mxPoint x="920" y="400" />
              <mxPoint x="920" y="-228" />
            </Array>
          </mxGeometry>
        </mxCell>
        <mxCell id="SEF9WH8XTWqk2aDTDYm8-8" value="notifyObserver()" style="html=1;verticalAlign=bottom;endArrow=block;curved=0;rounded=0;entryX=0;entryY=0.5;entryDx=0;entryDy=0;exitX=0.071;exitY=1.018;exitDx=0;exitDy=0;exitPerimeter=0;" edge="1" parent="1" source="WBVQhS7fT6MhLSs4P5gq-20" target="WBVQhS7fT6MhLSs4P5gq-29">
          <mxGeometry x="-0.0856" width="80" relative="1" as="geometry">
            <mxPoint x="350" y="710" as="sourcePoint" />
            <mxPoint x="610" y="700" as="targetPoint" />
            <Array as="points">
              <mxPoint x="260" y="825" />
            </Array>
            <mxPoint as="offset" />
          </mxGeometry>
        </mxCell>
        <mxCell id="SEF9WH8XTWqk2aDTDYm8-9" value="notifyObserver()" style="html=1;verticalAlign=bottom;endArrow=block;curved=0;rounded=0;exitX=1;exitY=0.655;exitDx=0;exitDy=0;entryX=0;entryY=0.5;entryDx=0;entryDy=0;exitPerimeter=0;" edge="1" parent="1" source="WBVQhS7fT6MhLSs4P5gq-20" target="WBVQhS7fT6MhLSs4P5gq-16">
          <mxGeometry width="80" relative="1" as="geometry">
            <mxPoint x="530" y="560" as="sourcePoint" />
            <mxPoint x="610" y="560" as="targetPoint" />
          </mxGeometry>
        </mxCell>
        <mxCell id="SEF9WH8XTWqk2aDTDYm8-10" value="notifyObserver()" style="html=1;verticalAlign=bottom;endArrow=block;curved=0;rounded=0;entryX=0.006;entryY=0.183;entryDx=0;entryDy=0;entryPerimeter=0;exitX=0.172;exitY=1.018;exitDx=0;exitDy=0;exitPerimeter=0;" edge="1" parent="1" source="WBVQhS7fT6MhLSs4P5gq-12" target="WBVQhS7fT6MhLSs4P5gq-16">
          <mxGeometry x="-0.5221" width="80" relative="1" as="geometry">
            <mxPoint x="610" y="600" as="sourcePoint" />
            <mxPoint x="610" y="560" as="targetPoint" />
            <Array as="points">
              <mxPoint x="600" y="640" />
            </Array>
            <mxPoint as="offset" />
          </mxGeometry>
        </mxCell>
        <mxCell id="SEF9WH8XTWqk2aDTDYm8-11" value="notifyObserver()" style="html=1;verticalAlign=bottom;endArrow=block;curved=0;rounded=0;exitX=1.006;exitY=0.916;exitDx=0;exitDy=0;entryX=0.61;entryY=-0.008;entryDx=0;entryDy=0;exitPerimeter=0;entryPerimeter=0;" edge="1" parent="1" source="WBVQhS7fT6MhLSs4P5gq-2" target="WBVQhS7fT6MhLSs4P5gq-9">
          <mxGeometry x="0.0488" y="-7" width="80" relative="1" as="geometry">
            <mxPoint x="530" y="270" as="sourcePoint" />
            <mxPoint x="610" y="270" as="targetPoint" />
            <Array as="points">
              <mxPoint x="727" y="167" />
            </Array>
            <mxPoint as="offset" />
          </mxGeometry>
        </mxCell>
      </root>
    </mxGraphModel>
  </diagram>
</mxfile>
